<svg version="1" xmlns="http://www.w3.org/2000/svg" width="682.667" height="682.667" viewBox="0 0 512.000000 512.000000"><path d="M243.9 51.6c-5.8 6-21.9 19.7-31.9 27.1-31.2 23-69.9 41.3-106.8 50.3l-9.2 2.2v80.7c0 49.7.4 83.9 1 89.1 3.3 26.6 13.9 48.5 32.9 68.3 19.3 20.1 41.4 35.4 93.8 65.1l24.2 13.7 19.8-11.2c54.7-30.8 79.9-48.1 98-67.2 19.7-20.9 30.4-43.9 33.3-71.8.6-6.1 1-41.4 1-88.4v-78.3l-5.2-1.2c-11.3-2.7-29.2-8.2-40.1-12.4-37.5-14.5-67.9-33.7-101.3-64l-6.1-5.6-3.4 3.6zm14.7 159.2c8.4 4.3 12.8 11.6 12.8 21.2 0 7-1.7 11.4-6.3 16.3-2.8 3.1-9 6.6-11.8 6.8-1 .1 1.7 1 6.1 2 25 6.1 42.4 26 44.3 50.9l.6 7.7-6.2 4.2c-8.4 5.8-19 10.6-28.6 13.2-6.5 1.8-10.7 2.2-22 2.2-12.3 0-15.1-.3-22.8-2.7-10.2-3-21.1-8.2-27.9-13.2-4.8-3.4-4.8-3.5-4.8-9.2 0-13.5 6-27.2 16.5-37.7 8.1-8.1 16.4-12.6 28.3-15.3l7.7-1.8-3.9-.8c-2.8-.5-5.3-2.2-9-5.9-7.5-7.5-9.3-15.3-6-25 1.9-5.6 9.6-13 15.1-14.6 5.2-1.4 13.3-.7 17.9 1.7z"/></svg>